name rise44.8762peak52.3436fall86.788.mot
datacolumns 19
datarows 11
range 15.21327700000000 15.22994200000000
endheader
time	ground_force1_vx	ground_force1_vy	ground_force1_vz	ground_force1_px	ground_force1_py	ground_force1_pz	ground_force2_vx	ground_force2_vy	ground_force2_vz	ground_force2_px	ground_force2_py	ground_force2_pz	ground_torque1_x	ground_torque1_y	ground_torque1_z	ground_torque2_x	ground_torque2_y	ground_torque2_z	
15.21327700000000	-35.35167000000000	785.84933699999999	62.52266500000000	0.06622000000000	0.00000000000000	0.11560400000000	-1.97799000000000	10.65393000000000	0.34795700000000	0.00000000000000	0.00000000000000	0.00000000000000	0.00000000000000	16.56583800000000	0.00000000000000	0.00000000000000	-0.16392600000000	0.00000000000000	
15.21494400000000	-35.29695200000000	783.17814699999997	62.30412100000000	0.06573300000000	0.00000000000000	0.11549000000000	-2.63339700000000	15.24263200000000	0.43756600000000	0.00000000000000	0.00000000000000	0.00000000000000	0.00000000000000	16.39372800000000	0.00000000000000	0.00000000000000	-0.22367000000000	0.00000000000000	
15.21660600000000	-35.25783200000000	780.41736200000003	62.06554200000000	0.06524900000000	0.00000000000000	0.11537400000000	-3.32084600000000	20.40772700000000	0.52318600000000	0.00000000000000	0.00000000000000	0.00000000000000	0.00000000000000	16.22456100000000	0.00000000000000	0.00000000000000	-0.28827300000000	0.00000000000000	
15.21827800000000	-35.23496700000000	777.56770400000005	61.80656800000000	0.06476800000000	0.00000000000000	0.11525400000000	-4.01454200000000	26.05479200000000	0.59929100000000	0.28586600000000	0.00000000000000	-0.08943600000000	0.00000000000000	16.05860200000000	0.00000000000000	0.00000000000000	-0.54362600000000	0.00000000000000	
15.21994100000000	-35.22897800000000	774.62988299999995	61.52686800000000	0.06429000000000	0.00000000000000	0.11513200000000	-4.68716700000000	32.07264800000000	0.66030900000000	0.29070000000000	0.00000000000000	-0.08996200000000	0.00000000000000	15.89610300000000	0.00000000000000	0.00000000000000	-0.65426900000000	0.00000000000000	
15.22161100000000	-35.24044400000000	771.60458900000003	61.22614400000000	0.06381600000000	0.00000000000000	0.11500700000000	-5.31186900000000	38.34294200000000	0.70100000000000	0.29499400000000	0.00000000000000	-0.09043200000000	0.00000000000000	15.73730800000000	0.00000000000000	0.00000000000000	-0.76582300000000	0.00000000000000	
15.22327500000000	-35.26990400000000	768.49248100000000	60.90413100000000	0.06334600000000	0.00000000000000	0.11487900000000	-5.86414100000000	44.74997800000000	0.71679100000000	0.29883400000000	0.00000000000000	-0.09085500000000	0.00000000000000	15.58245200000000	0.00000000000000	0.00000000000000	-0.87574400000000	0.00000000000000	
15.22494100000000	-35.31785000000000	765.29418499999997	60.56059700000000	0.06288000000000	0.00000000000000	0.11474800000000	-6.32336700000000	51.18948700000000	0.70403200000000	0.30228900000000	0.00000000000000	-0.09123900000000	0.00000000000000	15.43175900000000	0.00000000000000	0.00000000000000	-0.98184500000000	0.00000000000000	
15.22660900000000	-35.38472800000000	762.01027699999997	60.19534800000000	0.06241800000000	0.00000000000000	0.11461400000000	-6.67387900000000	57.57541900000000	0.66015000000000	0.30541300000000	0.00000000000000	-0.09158900000000	0.00000000000000	15.28543700000000	0.00000000000000	0.00000000000000	-1.08242500000000	0.00000000000000	
15.22827000000000	-35.47093300000000	758.64128200000005	59.80822500000000	0.06196000000000	0.00000000000000	0.11447600000000	-6.90547000000000	63.84426200000000	0.58369600000000	0.30825100000000	0.00000000000000	-0.09191100000000	0.00000000000000	15.14368600000000	0.00000000000000	0.00000000000000	-1.17634700000000	0.00000000000000	
15.22994200000000	-35.57680900000000	755.18766300000004	59.39910700000000	0.06150700000000	0.00000000000000	0.11433500000000	-7.01338100000000	69.95684199999999	0.47429400000000	0.31084000000000	0.00000000000000	-0.09220800000000	0.00000000000000	15.00668800000000	0.00000000000000	0.00000000000000	-1.26305600000000	0.00000000000000	
